# xmcd CD database file
#
# Track frame offsets:
#	150
#	14621
#	37370
#	52049
#	75525
#	95501
#	109047
#	122743
#	138111
#	159201
#	177919
#	193352
#	208875
#	222689
#	238932
#
# Disc length: 3475 seconds
#
# Revision: 0
# Processed by: cddbd v1.5.2PL0 Copyright (c) Steve Scherf et al.
# Submitted via: CDex 1.51
#
DISCID=e30d910f
DTITLE=Herzaft Blues - Herzaft Special
DYEAR=2000
DGENRE=Blues
TTITLE0=The Midnight Special
TTITLE1=My Blues Will
TTITLE2=J'ai la barbe qui... Rap
TTITLE3=I am a Bluesfan
TTITLE4=Just a Drifting Jew
TTITLE5=Lazy Friend
TTITLE6=Rag Around The Rock
TTITLE7=Write, Gerard, Write
TTITLE8=The Drifting Boogie
TTITLE9=She's a Drinking Headed Woman
TTITLE10=Old Black Train
TTITLE11=Mazel Tough
TTITLE12=A Full Bank Account
TTITLE13=Le vent s'est arrété
TTITLE14=Motherless Children
EXTD=YEAR: 2000
EXTT0=
EXTT1=
EXTT2=
EXTT3=
EXTT4=
EXTT5=
EXTT6=
EXTT7=
EXTT8=
EXTT9=
EXTT10=
EXTT11=
EXTT12=
EXTT13=
EXTT14=
PLAYORDER=
